<svg width="48" height="48" viewBox="0 0 48 48" fill="none" xmlns="http://www.w3.org/2000/svg">
<g clip-path="url(#clip0_2186_20830)">
<path fill-rule="evenodd" clip-rule="evenodd" d="M17.3228 12.3543C17.3228 11.6759 16.6019 11.0403 15.7238 11.2571L15.7231 11.2572C9.06118 12.8977 3.01395 20.2646 3.01395 28.1622C3.01395 37.7381 10.7773 45.5016 20.3558 45.5016C29.0209 45.5016 36.1915 39.2766 37.4853 30.8971L37.4854 30.8966C37.5837 30.2616 37.0359 29.5321 36.1106 29.5321C33.4675 29.5321 31.3346 29.5799 29.5861 29.6281C29.1989 29.6388 28.8288 29.6495 28.475 29.6598C27.2419 29.6956 26.2069 29.7257 25.338 29.7264C23.1091 29.7282 21.6283 29.551 20.2518 28.5311C18.8544 27.4958 18.152 26.0432 17.7772 23.6262C17.4112 21.2665 17.3228 17.7548 17.3228 12.3543ZM15.1257 8.83133C17.3564 8.28107 19.8212 9.83222 19.8212 12.3543C19.8212 17.7965 19.915 21.1086 20.246 23.2434C20.5682 25.3209 21.0775 26.0335 21.7391 26.5237C22.4215 27.0293 23.1807 27.2298 25.3359 27.228C26.1662 27.2273 27.1524 27.1987 28.3764 27.1632C28.7355 27.1528 29.1151 27.1417 29.5173 27.1307C31.2783 27.0821 33.4361 27.0337 36.1106 27.0337C38.2798 27.0337 40.3292 28.858 39.9544 31.2788C38.4722 40.877 30.2526 48 20.3558 48C9.39771 48 0.515564 39.1181 0.515564 28.1622C0.515564 19.1443 7.31893 10.7541 15.125 8.83151" fill="#111029"/>
<path fill-rule="evenodd" clip-rule="evenodd" d="M41.6709 6.71334C45.2284 10.5061 47.5522 15.3541 47.4829 19.2758C47.4604 20.6382 46.47 21.8358 45.0783 22.0458C39.2917 22.9215 31.4842 22.642 28.0229 22.444L28.0223 22.4439C26.3432 22.347 25.0157 21.0181 24.9186 19.3384C24.7205 15.9705 24.3618 8.4918 24.6281 2.69331C24.6924 1.27313 25.8343 0.0301823 27.3494 0.00268271M41.6709 6.71334C38.0884 2.89406 33.0259 -0.102138 27.3502 0.0026677ZM39.8486 8.42256C36.5767 4.93428 32.1472 2.41265 27.3957 2.50064L27.3949 2.50066C27.3395 2.50165 27.2791 2.52379 27.2229 2.58072C27.1645 2.63989 27.1278 2.72112 27.1239 2.80651L27.1239 2.80795C26.864 8.46487 27.2149 15.8303 27.4127 19.1924L27.4128 19.194C27.4367 19.6091 27.7552 19.926 28.1663 19.9497C31.6231 20.1475 39.2001 20.4086 44.7049 19.5755L44.7054 19.5754C44.848 19.5539 44.982 19.4204 44.9849 19.2343L44.9849 19.2317C45.0387 16.1871 43.1456 11.9375 39.8486 8.42256ZM27.3725 1.25175V1.25175V1.25175Z" fill="#111029"/>
</g>
<defs>
<clipPath id="clip0_2186_20830">
<rect width="48" height="48" fill="white"/>
</clipPath>
</defs>
</svg>
