<svg width="112" height="36" viewBox="0 0 112 36" fill="none" xmlns="http://www.w3.org/2000/svg">
<path d="M13.7941 0H14.7901C18.2478 0.0740191 21.6492 1.44337 24.0922 3.8675C23.1902 4.77423 22.2694 5.64396 21.3861 6.55069C20.0143 5.32937 18.3606 4.38563 16.5565 4.05254C13.888 3.4974 11.0128 3.99703 8.77654 5.49592C6.33354 7.06882 4.67982 9.73351 4.32277 12.5832C3.92813 15.396 4.7362 18.3567 6.59663 20.5403C8.3819 22.6683 11.1068 24.0007 13.9256 24.0932C16.5565 24.2412 19.3002 23.4455 21.217 21.6321C22.7204 20.3552 23.4157 18.4122 23.6412 16.5248C20.5217 16.5248 17.4022 16.5433 14.2827 16.5248V12.7128H27.4185C28.095 16.8023 27.1178 21.41 23.9607 24.3338C21.856 26.4063 18.9432 27.6276 15.974 27.8682C13.0988 28.1458 10.1296 27.6091 7.57383 26.2398C4.51069 24.6298 2.0677 21.9096 0.864991 18.7083C-0.262545 15.7661 -0.281337 12.4352 0.77103 9.47444C1.72944 6.77275 3.57108 4.38563 5.9389 2.7202C8.21277 1.07328 10.9752 0.166543 13.7941 0Z" fill="#57596C"/>
<path d="M89.1515 0.962402H93.173V27.3872C91.8388 27.3872 90.4857 27.4057 89.1515 27.3687C89.1703 18.5789 89.1515 9.77066 89.1515 0.962402V0.962402Z" fill="#57596C"/>
<path d="M36.3632 10.1222C38.8438 9.65954 41.5311 10.1777 43.5795 11.6395C45.4399 12.9349 46.7366 14.9704 47.1312 17.1909C47.6386 19.7631 46.9997 22.5758 45.3084 24.6113C43.4855 26.8874 40.4975 28.1087 37.5847 27.9236C34.9162 27.7756 32.3229 26.4617 30.7443 24.3152C28.9591 21.9466 28.5268 18.6898 29.504 15.9141C30.4812 12.9349 33.2437 10.6588 36.3632 10.1222V10.1222ZM36.927 13.638C35.9122 13.8971 34.9726 14.4707 34.2961 15.2849C32.4732 17.4315 32.586 20.9289 34.5968 22.9274C35.7431 24.0746 37.472 24.6113 39.0693 24.2967C40.5539 24.0376 41.8506 23.0569 42.5647 21.7616C43.805 19.5595 43.4479 16.5248 41.5499 14.8038C40.3284 13.6936 38.5431 13.2309 36.927 13.638Z" fill="#57596C"/>
<path d="M56.2814 10.1225C59.119 9.58591 62.2198 10.3631 64.3433 12.3246C67.8011 15.3779 68.1769 21.0959 65.2265 24.6118C63.4413 26.8324 60.5472 28.0537 57.6908 27.9242C54.9659 27.8501 52.2786 26.5178 50.6625 24.3157C48.8397 21.8916 48.445 18.5607 49.4786 15.7295C50.5122 12.8428 53.2183 10.6407 56.2814 10.1225V10.1225ZM56.8452 13.6385C55.8304 13.8975 54.8908 14.4712 54.2142 15.2669C52.4102 17.3764 52.4854 20.8183 54.421 22.8353C55.5673 24.0382 57.3526 24.6303 59.0063 24.2972C60.4721 24.0197 61.7875 23.0574 62.5016 21.7621C63.7231 19.5415 63.3661 16.5067 61.4493 14.7858C60.2278 13.6755 58.4425 13.2314 56.8452 13.6385Z" fill="#57596C"/>
<path d="M73.1778 11.1954C75.3389 9.86308 78.2141 9.49298 80.5443 10.6403C81.2772 10.9549 81.8786 11.4915 82.4611 12.0281C82.4799 11.5285 82.4612 11.0104 82.4799 10.4922C83.739 10.5107 84.9981 10.4922 86.276 10.5107V26.8319C86.2572 29.293 85.6183 31.9022 83.8142 33.6972C81.841 35.6772 78.8154 36.2878 76.0906 35.8807C73.1778 35.4551 70.6408 33.3641 69.5133 30.7179C70.6408 30.1813 71.8247 29.7557 72.9898 29.256C73.6476 30.7734 74.9818 32.0688 76.6543 32.3648C78.3268 32.6609 80.2625 32.2538 81.3524 30.8845C82.5175 29.4781 82.5175 27.5536 82.4611 25.8327C81.5967 26.6654 80.6007 27.4056 79.398 27.6831C76.7859 28.4048 73.9107 27.5166 71.8999 25.7771C69.8703 24.0377 68.6676 21.3545 68.7804 18.6898C68.8367 15.6736 70.5656 12.7683 73.1778 11.1954V11.1954ZM77.0678 13.564C75.9214 13.7491 74.8503 14.3782 74.1174 15.248C72.3509 17.3205 72.3509 20.6328 74.1362 22.6684C75.1509 23.8712 76.7859 24.5373 78.3644 24.3708C79.849 24.2228 81.2209 23.2975 81.9538 22.0207C83.1941 19.8556 82.9873 16.9134 81.3148 15.0259C80.2812 13.8601 78.6275 13.2865 77.0678 13.564V13.564Z" fill="#57596C"/>
<path d="M97.9998 12.139C100.255 10.0665 103.731 9.36328 106.625 10.4551C109.369 11.4728 111.117 14.045 112 16.6912C107.922 18.3566 103.863 20.0035 99.7851 21.6689C100.349 22.7237 101.213 23.686 102.378 24.0746C104.013 24.6482 105.968 24.4447 107.34 23.3714C107.885 22.9643 108.317 22.4276 108.73 21.9095C109.764 22.5942 110.797 23.2603 111.831 23.945C110.365 26.1101 107.903 27.6275 105.254 27.868C102.322 28.2196 99.2025 27.1093 97.3045 24.8518C94.185 21.2988 94.4857 15.3403 97.9998 12.139V12.139ZM100.011 15.5624C99.3716 16.4691 99.1086 17.5794 99.1273 18.6712C101.852 17.5609 104.577 16.4506 107.302 15.3218C106.851 14.2855 105.761 13.6564 104.652 13.4898C102.867 13.1753 101.007 14.119 100.011 15.5624V15.5624Z" fill="#57596C"/>
</svg>