<svg width="126" height="28" viewBox="0 0 126 28" fill="none" xmlns="http://www.w3.org/2000/svg">
<path d="M21.0148 27.9641L12.7578 27.8122C10.0844 27.7593 7.40431 27.865 4.78338 27.3167C0.796148 26.4975 0.513692 22.4807 0.218098 19.1114C-0.189164 14.3745 -0.0315142 9.55169 0.737029 4.85444C1.17057 2.21843 2.87844 0.64607 5.51908 0.4743C14.4329 -0.146715 23.4058 -0.0740435 32.2999 0.216644C33.2392 0.243071 34.1851 0.388415 35.1113 0.553578C39.6831 1.35958 39.7948 5.91148 40.0904 9.74328C40.386 13.6147 40.2612 17.506 39.6963 21.351C39.243 24.5353 38.376 27.2044 34.7172 27.462C30.1322 27.799 25.6523 28.0698 21.0542 27.9839C21.0542 27.9641 21.0279 27.9641 21.0148 27.9641V27.9641ZM16.1604 19.9041C19.6156 17.909 23.0051 15.9468 26.4405 13.9649C22.9788 11.9697 19.5959 10.0075 16.1604 8.02558V19.9041Z" fill="#57596C"/>
<path d="M106.319 24.3439C106.162 24.9914 106.024 25.5001 105.886 26.0418H102.654V0.969727H106.424V10.219C106.621 9.96793 106.72 9.86222 106.805 9.74991C107.449 8.85802 108.283 8.27664 109.361 8.05201C111.075 7.71508 112.54 8.47483 113.059 10.1331C113.394 11.1637 113.61 12.267 113.637 13.3439C113.689 16.1121 113.65 18.8736 113.551 21.6418C113.512 22.4875 113.256 23.3529 112.934 24.1457C111.876 26.7619 108.421 27.1583 106.707 24.8923C106.602 24.7535 106.503 24.6016 106.319 24.3439V24.3439ZM106.503 17.4466V22.0316C106.503 22.7781 106.897 23.234 107.64 23.4058C108.369 23.5775 108.96 23.2935 109.255 22.613C109.38 22.3289 109.505 22.0316 109.512 21.7343C109.584 18.9331 109.65 16.1319 109.669 13.3241C109.669 12.8022 109.544 12.2604 109.387 11.7517C109.091 10.8334 108.277 10.5625 107.475 11.0977C106.871 11.5073 106.503 12.0887 106.503 12.8616V17.4466ZM96.2559 8.40877H100.204V26.055H97.123C97.0113 25.3878 96.8996 24.7007 96.7683 23.8947C96.5581 24.2052 96.4333 24.4034 96.3019 24.6016C95.2772 26.0881 93.8255 26.5968 92.111 26.3259C90.6462 26.0881 89.766 24.9517 89.5689 23.0887C89.5098 22.5337 89.4835 21.9721 89.4835 21.4172C89.4704 17.2881 89.4835 13.1457 89.4835 9.01658V8.39556H93.4773V9.11568C93.4773 13.1061 93.4642 17.0899 93.4905 21.0802C93.4905 21.6484 93.5496 22.2364 93.6481 22.8046C93.7598 23.386 94.1802 23.5974 94.7451 23.5577C95.6581 23.4851 96.2887 22.8046 96.2887 21.8929V9.18835C96.2559 8.93069 96.2559 8.69285 96.2559 8.40877V8.40877ZM69.0745 8.39556H73.042V9.1421C73.042 13.1127 73.0288 17.0766 73.0551 21.034C73.0551 21.6022 73.1077 22.1902 73.2259 22.7451C73.377 23.3992 73.758 23.6106 74.4083 23.5247C75.3082 23.3992 75.8534 22.7715 75.86 21.8532V9.21478V8.42198H79.8078V26.055H76.7402C76.6285 25.401 76.5168 24.7271 76.3723 23.8748C76.1753 24.1721 76.0636 24.3439 75.9519 24.5223C74.9272 26.0352 73.4886 26.5902 71.7348 26.3193C70.3291 26.1079 69.4686 25.064 69.2058 23.3529C69.1336 22.8178 69.081 22.2893 69.081 21.7541C69.0679 17.4664 69.0679 13.1589 69.0679 8.87123L69.0745 8.39556ZM67.0381 17.8166C67.025 18.4112 66.9856 19.0058 66.9527 19.6004C66.8017 21.3841 66.7294 23.9145 65.2974 25.216C64.3844 26.0352 63.2283 26.3325 62.0328 26.3721C61.5007 26.3854 60.9621 26.3854 60.43 26.3127C57.9142 25.9295 56.7449 24.813 56.3245 22.0316C55.845 18.8208 55.8056 15.5571 56.3771 12.3463C56.9683 9.02318 59.0046 7.84721 62.1707 8.06523C65.1266 8.27664 66.447 10.2256 66.7951 13.0004C66.9856 14.5926 67.0776 16.2046 67.0381 17.8166V17.8166ZM63.0181 17.2088C63.0181 16.079 63.0444 14.9427 63.0049 13.813C62.9787 13.1589 62.8933 12.4983 62.7553 11.8508C62.5977 11.1043 62.1247 10.7475 61.5335 10.7607C60.9555 10.7739 60.5482 11.1307 60.338 11.8244C60.2658 12.082 60.1869 12.3463 60.1869 12.604C60.1869 14.3745 60.1738 16.1517 60.1607 17.9223C60.1475 19.5739 59.9373 21.3049 60.4563 22.8838C60.6139 23.3661 61.0212 23.6304 61.5532 23.6304C62.0722 23.6304 62.4137 23.3727 62.6042 22.9103C62.7553 22.5535 62.8867 22.1637 62.8867 21.7805C62.9327 20.261 63.0181 18.7349 63.0181 17.2088ZM50.5309 13.8856C50.879 12.1745 51.2075 10.5031 51.5688 8.82499C52.022 6.69105 52.5278 4.55712 52.9745 2.41657C53.0861 1.89465 53.2963 1.76913 53.789 1.78234C54.8466 1.82198 55.9238 1.79555 57.0537 1.79555C56.6858 3.15651 56.3245 4.45141 55.9698 5.72649C54.8466 9.73009 53.7233 13.7469 52.6132 17.7637C52.5278 18.0742 52.4884 18.4112 52.4884 18.7415C52.4752 20.9349 52.4884 23.1217 52.4884 25.3151V26.0286H48.6325C48.6194 25.8304 48.5931 25.6322 48.5931 25.434C48.5931 24.192 48.4946 22.9433 48.6063 21.7145C48.8887 18.7613 47.956 16.046 47.2005 13.2977C46.2021 9.66402 45.1905 6.01718 44.1921 2.38354C44.1395 2.21177 44.1198 2.02678 44.0673 1.81537H48.0019C48.8296 5.82558 49.6638 9.8358 50.5309 13.8856ZM125.973 18.4905H119.325C119.398 19.8316 119.424 21.1067 119.562 22.3685C119.66 23.2472 120.14 23.6238 120.895 23.6304C121.683 23.6436 122.143 23.2472 122.327 22.3751C122.386 22.0911 122.426 21.807 122.452 21.5163C122.478 21.2586 122.491 20.9811 122.511 20.6112C123.634 20.6706 124.731 20.7367 125.815 20.7829C126.446 22.6658 125.309 25.0838 123.398 25.8304C121.894 26.425 120.35 26.425 118.813 25.9691C117.677 25.6322 116.829 24.9055 116.448 23.789C116.093 22.7451 115.758 21.655 115.686 20.5649C115.489 17.876 115.417 15.1607 115.824 12.4652C115.896 12.016 116.021 11.5865 116.159 11.1505C116.711 9.35351 117.913 8.25021 119.772 8.06523C120.784 7.96613 121.828 8.00577 122.826 8.17754C124.442 8.46162 125.303 9.63099 125.677 11.1637C125.848 11.8838 125.973 12.6238 125.999 13.3571C126.006 15.0418 125.973 16.7133 125.973 18.4905ZM122.196 16.1715C122.196 14.8436 122.209 13.595 122.183 12.3397C122.183 12.0424 122.071 11.7319 121.959 11.4478C121.736 10.8929 121.27 10.7409 120.711 10.7409C120.153 10.7409 119.798 11.025 119.66 11.5337C119.24 13.0598 119.378 14.619 119.391 16.1847C120.396 16.1715 121.309 16.1715 122.196 16.1715V16.1715Z" fill="#57596C"/>
<path d="M82.8553 5.03302H78.9469V1.84863H90.6129V5.0132H86.7308V26.0289H82.8618L82.8553 5.03302Z" fill="#57596C"/>
</svg>
